# xmcd CD database file
# Copyright (C) 1993-1998 Ti Kan
#
# Track frame offsets:
#  183
#  14275
#  28873
#  34433
#  49735
#  68940
#  82730
#  95653
#  108430
#  117965
#  136140
#  151508
#  163768
#  173403
#  182385
#  193283
#
# Disc length: 2746 seconds
#
# Revision: 1
# Processed by: cddbd v1.4b41PL1 Copyright (c) Steve Scherf et al.
# Submitted via: CDWizzard Release:4.35
#
DISCID=c80ab810
DTITLE=Small Faces - Lazy Sunday
DYEAR=1900
DGENRE=
TTITLE0=Lazy Sunday
TTITLE1=Collibosher
TTITLE2=Just Passing
TTITLE3=Wham Bam Thank You Mam
TTITLE4=Red Balloon
TTITLE5=Here Comes The Nice
TTITLE6=Itchycoo Park
TTITLE7=Wide Eyed Girl On The Wall
TTITLE8=I Can't Make It
TTITLE9=Automn Stone
TTITLE10=Afterglow
TTITLE11=The Universal
TTITLE12=Talk To You
TTITLE13=My Way Of Giving
TTITLE14=I'm Only Dreaming
TTITLE15=Green Circles
EXTD=
EXTT0=
EXTT1=
EXTT2=
EXTT3=
EXTT4=
EXTT5=
EXTT6=
EXTT7=
EXTT8=
EXTT9=
EXTT10=
EXTT11=
EXTT12=
EXTT13=
EXTT14=
EXTT15=
PLAYORDER=
